<svg xmlns="http://www.w3.org/2000/svg"  viewBox="0 0 64 64" width="64px" height="64px"><path fill="#cda1a7" d="M16 21H56V56H16z"/><path fill="#c4939c" d="M55,57H31v-7h20c2.209,0,4,1.791,4,4V57z"/><path fill="#8b8e98" d="M16 21H56V27H16z"/><path fill="#8d6c9f" d="M56 20H16c-.553 0-1 .447-1 1v35c0 .553.447 1 1 1h40c.553 0 1-.447 1-1V21C57 20.447 56.553 20 56 20zM17 22h38v4H17V22zM17 55V28h38v27H17zM44.089 20H43c-1.074 0-1.909-.437-2.718-.858C39.258 18.606 38.098 18 36 18s-3.258.606-4.282 1.142C30.909 19.563 30.074 20 29 20h-1c-.553 0-1-.447-1-1s.447-1 1-1h1c.583 0 1.09-.265 1.792-.632C31.897 16.791 33.411 16 36 16s4.103.791 5.208 1.368C41.91 17.735 42.417 18 43 18l1.089.017c.474.086.863.493.863.983 0 .522-.357.951-.863.996V20z"/><path fill="#efc88e" d="M33.3,38.66c-0.1,0.32-0.21,0.61-0.35,0.89l-0.01,0.02c-0.13,0.29-0.28,0.55-0.44,0.8 c-1.13,1.8-2.59,2.95-2.93,4.05c-0.33,1.02-0.26,2.14,0.25,3.08c0.15,0.26,0.29,0.51,0.44,0.74c0.41,0.66,0.82,1.25,1.14,1.92v0.01 c0.21,0.43,0.39,0.91,0.5,1.46c0.04,0.18,0.07,0.36,0.09,0.56c0.09,0.76-0.06,2.09-0.37,3.06C30.65,58.34,27.33,62,21.71,62 c-1.35,0-2.85-0.22-4.49-0.72c-0.1-0.02-0.21-0.06-0.31-0.09c-1.5-0.48-2.77-1.07-3.84-1.76c-0.95-0.6-1.75-1.27-2.4-1.99 c-1.09-1.19-1.8-2.49-2.21-3.79c-0.27-0.87-0.41-1.73-0.44-2.56C8,50.89,8,50.69,8,50.5c0.01-0.98,0.17-1.89,0.42-2.68 c0.02-0.07,0.04-0.14,0.07-0.2c1.05-3.15,2.84-3.89,4.69-4.69c0.32-0.14,0.64-0.28,0.96-0.44c0.95-0.46,1.65-1.35,1.97-2.37 c0.02-0.05,0.03-0.11,0.05-0.17c0.23-1.03-0.17-2.59-0.16-4.45c0-0.71,0.09-1.46,0.34-2.24c0.41-1.32,1.11-2.23,2.29-2.26 c0.11,0,0.24,0,0.36,0.02c1.06,0.13,1.4,0.93,1.69,1.69c0.19,0.47,0.46,1.02,1.36,1.35c0.06,0.03,0.12,0.05,0.18,0.07l0.97,0.31 l1.11,0.36l2.28,0.73l0.44,0.14l0.97,0.31c1.05,0.33,1.62-0.06,2.07-0.36c0.47-0.32,0.98-0.64,1.57-0.62 c0.24,0.01,0.5,0.07,0.78,0.22c0.1,0.06,0.2,0.12,0.29,0.19C33.63,36.11,33.72,37.34,33.3,38.66z"/><path fill="#efd8be" d="M22.393 37.577L23.307 34.693 32.616 9.028 34.555 9.636 27.185 35.91 26.271 38.794z"/><path fill="#f9e3ae" d="M24.121 45.517L20.243 44.3 21.164 41.419 25.043 42.636zM22.393 37.577L23.307 34.693 27.185 35.91 26.271 38.794zM14.49 48.03L15.35 49.6 16.91 50.45 15.35 51.3 14.49 52.87 13.64 51.3 12.07 50.45 13.64 49.6zM22.72 55.03L23.3 56.1 24.37 56.68 23.3 57.26 22.72 58.33 22.14 57.26 21.07 56.68 22.14 56.1z"/><path fill="#8b8e98" d="M35.506 9.999L31.628 8.782 33.797 2 37.675 3.217z"/><path fill="#8d6c9f" d="M22.893 50.359c-.099 0-.2-.015-.3-.046l-3.879-1.218c-.526-.165-.819-.727-.654-1.254.164-.525.722-.821 1.254-.654l3.879 1.218c.526.165.819.727.654 1.254C23.713 50.086 23.318 50.359 22.893 50.359zM24.121 46.518c-.099 0-.2-.015-.3-.046l-3.878-1.218c-.254-.08-.465-.258-.588-.493-.122-.236-.146-.512-.064-.766l.921-2.881c.167-.523.723-.814 1.251-.649l3.879 1.217c.255.08.466.257.589.493.122.236.146.512.064.766l-.922 2.882C24.937 46.247 24.545 46.518 24.121 46.518zM21.502 43.646l1.97.619.313-.977-1.971-.618L21.502 43.646zM26.271 39.794c-.099 0-.199-.015-.299-.046l-3.88-1.217c-.253-.079-.465-.257-.587-.492-.123-.235-.146-.511-.066-.764l.914-2.885 9.322-25.704c.183-.504.73-.774 1.24-.613l1.939.609c.516.162.809.704.663 1.225l-7.37 26.273-.924 2.915C27.09 39.521 26.696 39.794 26.271 39.794zM23.648 36.923l1.971.618.613-1.933L33.331 10.3l-.102-.031-8.982 24.765L23.648 36.923z"/><path fill="#8d6c9f" d="M35.507,10.999c-0.099,0-0.199-0.015-0.3-0.046l-3.878-1.217c-0.255-0.08-0.466-0.257-0.589-0.493 c-0.122-0.236-0.146-0.512-0.064-0.766l2.169-6.782c0.167-0.523,0.725-0.815,1.252-0.649l3.878,1.217 c0.254,0.08,0.465,0.257,0.588,0.493c0.122,0.236,0.146,0.512,0.064,0.766l-2.168,6.782C36.323,10.729,35.931,10.999,35.507,10.999z M32.887,8.129l1.971,0.618l1.559-4.877l-1.97-0.618L32.887,8.129z"/><path fill="#8d6c9f" d="M32.213 4.616c-.099 0-.199-.015-.299-.046l-.97-.304c-.527-.165-.82-.726-.655-1.253.164-.527.723-.823 1.253-.655l.97.304c.527.165.82.726.655 1.253C33.033 4.343 32.639 4.616 32.213 4.616zM31.291 7.498c-.099 0-.2-.015-.3-.046l-.969-.305c-.527-.166-.82-.728-.654-1.254.166-.525.722-.821 1.254-.654l.969.305c.527.166.82.728.654 1.254C32.11 7.225 31.717 7.498 31.291 7.498zM39 6.747c-.099 0-.2-.015-.3-.046l-.97-.305c-.526-.166-.819-.727-.654-1.254.166-.525.722-.82 1.254-.654l.97.305c.526.166.819.727.654 1.254C39.819 6.474 39.426 6.747 39 6.747zM38.078 9.628c-.099 0-.199-.015-.299-.046L36.81 9.278c-.527-.165-.82-.727-.655-1.253.165-.527.722-.821 1.253-.655l.969.304c.527.165.82.727.655 1.253C38.898 9.354 38.504 9.628 38.078 9.628zM32.881 34.343c-.399-.216-.813-.331-1.228-.343-.912.007-1.671.468-2.156.794-.385.261-.618.415-1.205.229l-5.768-1.843c-.673-.215-.786-.513-.906-.829-.283-.74-.811-2.119-2.502-2.325C18.94 30.004 18.771 30.001 18.6 30c-1.052.028-2.464.564-3.218 2.96-.253.806-.377 1.635-.381 2.535-.004.843.068 1.616.133 2.299.078.826.151 1.606.02 2.025-.251.799-.781 1.445-1.454 1.772-.333.162-.669.308-1.002.452-1.907.828-4.069 1.768-5.234 5.473-.289.92-.448 1.948-.462 2.972-.026 2.006.588 8.776 9.603 11.655 1.775.567 3.492.855 5.103.856.003 0 .005 0 .008 0 5.889 0 9.7-3.741 10.865-7.45.336-1.069.51-2.563.403-3.475-.202-1.744-.908-2.849-1.591-3.916-.229-.359-.467-.729-.693-1.142-.365-.661-.431-1.5-.179-2.3.128-.405.62-.985 1.142-1.6.533-.627 1.137-1.338 1.685-2.21.395-.627.691-1.263.907-1.945v-.002C34.914 36.854 34.414 35.171 32.881 34.343zM32.345 38.363c-.163.516-.39 1-.691 1.479-.473.752-1.027 1.404-1.517 1.98-.685.807-1.276 1.503-1.525 2.295-.415 1.318-.293 2.728.335 3.865.249.452.509.859.761 1.253.637.996 1.14 1.783 1.289 3.069.065.567-.049 1.766-.325 2.645C29.965 57.198 27.284 61 21.714 61c-.002 0-.004 0-.006 0-1.405-.001-2.918-.257-4.496-.761-7.495-2.395-8.239-7.599-8.211-9.726.011-.831.139-1.661.37-2.398.891-2.833 2.317-3.452 4.123-4.236.359-.156.721-.313 1.08-.488 1.165-.567 2.071-1.65 2.487-2.972.253-.804.165-1.734.063-2.813-.063-.668-.128-1.358-.124-2.103.003-.697.098-1.334.289-1.944.483-1.536 1.122-1.554 1.36-1.56.012-.001.023-.001.034-.001.061 0 .122.004.187.012.405.05.569.247.878 1.055.27.704.758 1.569 2.166 2.02l5.768 1.843c1.514.485 2.437-.142 2.933-.476C30.99 36.2 31.354 35.971 31.597 36c.102.002.21.036.333.103C32.567 36.447 32.707 37.207 32.345 38.363zM46 48.03c-.552 0-1 .447-1 1v2c0 .553.448 1 1 1s1-.447 1-1v-2C47 48.477 46.552 48.03 46 48.03zM51 48.03c-.552 0-1 .447-1 1v2c0 .553.448 1 1 1s1-.447 1-1v-2C52 48.477 51.552 48.03 51 48.03zM41 48.03c-.552 0-1 .447-1 1v2c0 .553.448 1 1 1 .552 0 1-.447 1-1v-2C42 48.477 41.552 48.03 41 48.03zM36 48.03c-.552 0-1 .447-1 1v2c0 .553.448 1 1 1 .552 0 1-.447 1-1v-2C37 48.477 36.552 48.03 36 48.03z"/></svg>